<mxfile host="app.diagrams.net" agent="Mozilla/5.0 (Macintosh; Intel Mac OS X 10_15_7) AppleWebKit/537.36 (KHTML, like Gecko) Chrome/129.0.0.0 Safari/537.36" version="24.8.2">
  <diagram id="C5RBs43oDa-KdzZeNtuy" name="Page-1">
    <mxGraphModel dx="1151" dy="587" grid="1" gridSize="10" guides="1" tooltips="1" connect="1" arrows="1" fold="1" page="1" pageScale="1" pageWidth="827" pageHeight="1169" math="0" shadow="0">
      <root>
        <mxCell id="WIyWlLk6GJQsqaUBKTNV-0" />
        <mxCell id="WIyWlLk6GJQsqaUBKTNV-1" parent="WIyWlLk6GJQsqaUBKTNV-0" />
        <mxCell id="WIyWlLk6GJQsqaUBKTNV-7" value="Normalization" style="rounded=1;whiteSpace=wrap;html=1;fontSize=12;glass=0;strokeWidth=1;shadow=0;" parent="WIyWlLk6GJQsqaUBKTNV-1" vertex="1">
          <mxGeometry x="160" y="110" width="120" height="40" as="geometry" />
        </mxCell>
        <mxCell id="WIyWlLk6GJQsqaUBKTNV-12" value="PCA" style="rounded=1;whiteSpace=wrap;html=1;fontSize=12;glass=0;strokeWidth=1;shadow=0;" parent="WIyWlLk6GJQsqaUBKTNV-1" vertex="1">
          <mxGeometry x="160" y="170" width="120" height="40" as="geometry" />
        </mxCell>
        <mxCell id="bOdB9gnPUa2tkPVnQq2G-0" value="Input gene expression count matrices" style="text;html=1;align=center;verticalAlign=middle;resizable=0;points=[];autosize=1;strokeColor=none;fillColor=none;" vertex="1" parent="WIyWlLk6GJQsqaUBKTNV-1">
          <mxGeometry x="300" y="80" width="220" height="30" as="geometry" />
        </mxCell>
        <mxCell id="bOdB9gnPUa2tkPVnQq2G-1" value="Normalization" style="text;html=1;align=center;verticalAlign=middle;resizable=0;points=[];autosize=1;strokeColor=none;fillColor=none;" vertex="1" parent="WIyWlLk6GJQsqaUBKTNV-1">
          <mxGeometry x="45" y="140" width="100" height="30" as="geometry" />
        </mxCell>
        <mxCell id="bOdB9gnPUa2tkPVnQq2G-4" value="Regression Analysis" style="rounded=1;whiteSpace=wrap;html=1;fontSize=12;glass=0;strokeWidth=1;shadow=0;" vertex="1" parent="WIyWlLk6GJQsqaUBKTNV-1">
          <mxGeometry x="160" y="225" width="120" height="40" as="geometry" />
        </mxCell>
        <mxCell id="bOdB9gnPUa2tkPVnQq2G-12" style="edgeStyle=orthogonalEdgeStyle;rounded=0;orthogonalLoop=1;jettySize=auto;html=1;exitX=0.5;exitY=1;exitDx=0;exitDy=0;" edge="1" parent="WIyWlLk6GJQsqaUBKTNV-1" source="bOdB9gnPUa2tkPVnQq2G-5" target="bOdB9gnPUa2tkPVnQq2G-11">
          <mxGeometry relative="1" as="geometry" />
        </mxCell>
        <mxCell id="bOdB9gnPUa2tkPVnQq2G-20" value="YES" style="edgeLabel;html=1;align=center;verticalAlign=middle;resizable=0;points=[];" vertex="1" connectable="0" parent="bOdB9gnPUa2tkPVnQq2G-12">
          <mxGeometry x="0.0351" y="-1" relative="1" as="geometry">
            <mxPoint as="offset" />
          </mxGeometry>
        </mxCell>
        <mxCell id="bOdB9gnPUa2tkPVnQq2G-13" style="edgeStyle=orthogonalEdgeStyle;rounded=0;orthogonalLoop=1;jettySize=auto;html=1;exitX=0.5;exitY=1;exitDx=0;exitDy=0;entryX=0.5;entryY=0;entryDx=0;entryDy=0;" edge="1" parent="WIyWlLk6GJQsqaUBKTNV-1" source="bOdB9gnPUa2tkPVnQq2G-5" target="bOdB9gnPUa2tkPVnQq2G-10">
          <mxGeometry relative="1" as="geometry" />
        </mxCell>
        <mxCell id="bOdB9gnPUa2tkPVnQq2G-21" value="NO" style="edgeLabel;html=1;align=center;verticalAlign=middle;resizable=0;points=[];" vertex="1" connectable="0" parent="bOdB9gnPUa2tkPVnQq2G-13">
          <mxGeometry x="-0.0175" y="1" relative="1" as="geometry">
            <mxPoint as="offset" />
          </mxGeometry>
        </mxCell>
        <mxCell id="bOdB9gnPUa2tkPVnQq2G-5" value="Identification of meaningful PCs." style="rounded=1;whiteSpace=wrap;html=1;fontSize=12;glass=0;strokeWidth=1;shadow=0;" vertex="1" parent="WIyWlLk6GJQsqaUBKTNV-1">
          <mxGeometry x="160" y="280" width="120" height="40" as="geometry" />
        </mxCell>
        <mxCell id="bOdB9gnPUa2tkPVnQq2G-6" value="Normalize the expression data matrix." style="text;html=1;align=center;verticalAlign=middle;resizable=0;points=[];autosize=1;strokeColor=none;fillColor=none;" vertex="1" parent="WIyWlLk6GJQsqaUBKTNV-1">
          <mxGeometry x="304" y="135" width="220" height="30" as="geometry" />
        </mxCell>
        <mxCell id="bOdB9gnPUa2tkPVnQq2G-7" value="Perform PCA on the normalized data to identify principal components." style="text;html=1;align=center;verticalAlign=middle;resizable=0;points=[];autosize=1;strokeColor=none;fillColor=none;" vertex="1" parent="WIyWlLk6GJQsqaUBKTNV-1">
          <mxGeometry x="304" y="195" width="390" height="30" as="geometry" />
        </mxCell>
        <mxCell id="bOdB9gnPUa2tkPVnQq2G-8" value="Perform regression of principal components (PCs) against the experimental design." style="text;whiteSpace=wrap;html=1;" vertex="1" parent="WIyWlLk6GJQsqaUBKTNV-1">
          <mxGeometry x="310" y="250" width="480" height="40" as="geometry" />
        </mxCell>
        <mxCell id="bOdB9gnPUa2tkPVnQq2G-9" value="Identify which PCs have a meaningful correlation with the experimental design." style="text;whiteSpace=wrap;html=1;" vertex="1" parent="WIyWlLk6GJQsqaUBKTNV-1">
          <mxGeometry x="310" y="310" width="450" height="40" as="geometry" />
        </mxCell>
        <mxCell id="bOdB9gnPUa2tkPVnQq2G-10" value="Downstream Analysis" style="rounded=1;whiteSpace=wrap;html=1;fontSize=12;glass=0;strokeWidth=1;shadow=0;" vertex="1" parent="WIyWlLk6GJQsqaUBKTNV-1">
          <mxGeometry x="230" y="364" width="120" height="40" as="geometry" />
        </mxCell>
        <mxCell id="bOdB9gnPUa2tkPVnQq2G-11" value="Modification of Design File" style="rounded=1;whiteSpace=wrap;html=1;fontSize=12;glass=0;strokeWidth=1;shadow=0;" vertex="1" parent="WIyWlLk6GJQsqaUBKTNV-1">
          <mxGeometry x="90" y="364" width="120" height="40" as="geometry" />
        </mxCell>
        <mxCell id="bOdB9gnPUa2tkPVnQq2G-16" value="Use identified PCs as surrogates for unexpected variables." style="text;whiteSpace=wrap;html=1;" vertex="1" parent="WIyWlLk6GJQsqaUBKTNV-1">
          <mxGeometry x="235" y="414" width="115" height="40" as="geometry" />
        </mxCell>
        <mxCell id="bOdB9gnPUa2tkPVnQq2G-17" value="&lt;span style=&quot;background-color: initial;&quot;&gt;Modify the design file with PC coordinates for further regression analysis.&lt;/span&gt;" style="text;whiteSpace=wrap;html=1;" vertex="1" parent="WIyWlLk6GJQsqaUBKTNV-1">
          <mxGeometry x="60" y="414" width="170" height="50" as="geometry" />
        </mxCell>
        <mxCell id="bOdB9gnPUa2tkPVnQq2G-18" value="" style="shape=image;verticalLabelPosition=bottom;labelBackgroundColor=default;verticalAlign=top;aspect=fixed;imageAspect=0;image=data:image/png,iVBORw0KGgoAAAANSUhEUgAAAeoAAADACAYAAADLLSDeAAABJ2lDQ1BrQ0dDb2xvclNwYWNlQWRvYmVSR0IxOTk4AAAokWNgYFJILCjIYRJgYMjNKykKcndSiIiMUmB/wcDFIMnAx6DPIJOYXFzgGBDgwwAEMBoVfLvGwAiiL+uCzMKUxwu4UlKLk4H0HyDOTi4oKmFgYMwAspXLSwpA7B4gWyQpG8xeAGIXAR0IZG8BsdMh7BNgNRD2HbCakCBnIPsDkM2XBGYzgeziS4ewBUBsqL0gIOiYkp+UqgDyvYahpaWFJol+IAhKUitKQLRzfkFlUWZ6RomCIzCkUhU885L1dBSMDIxMGBhA4Q5R/TkQHJ6MYmcQYgiAEJsjwcDgv5SBgeUPQsykl4FhgQ4DA/9UhJiaIQODgD4Dw745yaVFZVBjGJmMGRgI8QFmGUp6zC/yeAAAAGJlWElmTU0AKgAAAAgAAgESAAMAAAABAAEAAIdpAAQAAAABAAAAJgAAAAAAA5KGAAcAAAASAAAAUKACAAQAAAABAAAB6qADAAQAAAABAAAAwAAAAABBU0NJSQAAAFNjcmVlbnNob3RzOR29AAACPWlUWHRYTUw6Y29tLmFkb2JlLnhtcAAAAAAAPHg6eG1wbWV0YSB4bWxuczp4PSJhZG9iZTpuczptZXRhLyIgeDp4bXB0az0iWE1QIENvcmUgNi4wLjAiPgogICA8cmRmOlJERiB4bWxuczpyZGY9Imh0dHA6Ly93d3cudzMub3JnLzE5OTkvMDIvMjItcmRmLXN5bnRheC1ucyMiPgogICAgICA8cmRmOkRlc2NyaXB0aW9uIHJkZjphYm91dD0iIgogICAgICAgICAgICB4bWxuczpleGlmPSJodHRwOi8vbnMuYWRvYmUuY29tL2V4aWYvMS4wLyIKICAgICAgICAgICAgeG1sbnM6dGlmZj0iaHR0cDovL25zLmFkb2JlLmNvbS90aWZmLzEuMC8iPgogICAgICAgICA8ZXhpZjpQaXhlbFlEaW1lbnNpb24+MTkyPC9leGlmOlBpeGVsWURpbWVuc2lvbj4KICAgICAgICAgPGV4aWY6VXNlckNvbW1lbnQ+U2NyZWVuc2hvdDwvZXhpZjpVc2VyQ29tbWVudD4KICAgICAgICAgPGV4aWY6UGl4ZWxYRGltZW5zaW9uPjQ5MDwvZXhpZjpQaXhlbFhEaW1lbnNpb24+CiAgICAgICAgIDx0aWZmOk9yaWVudGF0aW9uPjE8L3RpZmY6T3JpZW50YXRpb24+CiAgICAgIDwvcmRmOkRlc2NyaXB0aW9uPgogICA8L3JkZjpSREY+CjwveDp4bXBtZXRhPgoe0AK7AABAAElEQVR4Ae1dBZgUxxIuLEEfroEEd3cITggSCHa4SwjuBHdPgkuAENxdg7tLgrtDBHfX13/t9WR2b++Yu909rfq+Hemptn96urqqq3vDJUiU7AMJCQKCgCAgCAgCgkCwRCB8sCyVFEoQEAQEAUFAEBAEGAER1NIQBAFBQBAQBASBYIyACOpg/HKkaIKAICAICAKCQEQzBJmy5jDfyrUgIAgIAoKAICAIBDECdoIaZTl1/EgQF0myFwRCBwIY+Mr35Nl3KRh7Fl/H1AVvR0Q8e6/xFtO3Z3GW1AUBQUAQEAQEAZcQEEHtEnwSWRAQBAQBQUAQ8CwCIqg9i6+kLggIAoKAICAIuISACGqX4JPIgoAgIAgIAoKAZxEQQe1ZfCV1QUAQEAQEAUHAJQREULsEn0QWBAQBQUAQEAQ8i4AIas/iK6kLAoKAICAICAIuISCC2iX4JLIgIAgIAoKAIOBZBERQexZfSV0QEAQEAUFAEHAJARHULsEnkQUBQUAQEAQEAc8iIILas/gG29TLlS9PR4+foClTf/OzjIUKF6bJv06lfgMG+MknD8MeAg0aNeK20aBhw7BX+UCqcYwYMRhjfIPRY0T3d67hw4enHDlzUsFCX9Inn3zi7/hhLYKrbTpSpIiUO3du+ixpUrdC52Ovb7emLokFWwQqVPiWokWPToUKF/GzjAUKFKQSJUvSi+fPqV+fPn7yysOwhUClylUoc+bMFC9ePJo5Y4a/Kt+iVWvq0LEjhQsXjo78+SdV96rqr/hhhTlW7Nj8/aG+MWPGoqdPnlqu+k8jRlLFSpUYYx1p7+491KB+XX0rZwcEAtqmMYhavmIVJU+Rwkjx/fv39MuE8TR61CgjLKAXIqgDilwIjzegf3+KoQT1ypUrQnhNpPghCQFoeL9Nn6EGiIWNYiNMyL0I9OrTlypVrsyJvnnzls/Q9qBZj1CCo1OHDu7NMIyntm79BkqUOAmj8Pr1a4oUKRKhXbdq05Zu3LhBS5cscQkh+UJcgi9gka12TFb5AlKKf//5m+rWqU2LFy0KSHSJE4wQsNpOnPE5C/Nk1cxCGhpHcCErOFjhQX2c8TkLc0fdfUu3fIUKnPylixcpY7o0lCVjerpz5w6HfVnov0GSO8oQkDR8K7dO62PP/cun+V09OytXokSJDSE9csQIypQ+HeXPk4devXrF2VWoUNHVbEkEtYsQwuy3cPFSOnX2HJ27eIlWrllLnTp3oROnTtPGLVuM1PGCx4wdR4ePHmW+P44dowmTJhkfdZYsWTgO4lWsVNngO33uPHXs1MlIBxdFihSl9Rs3cTrIE/nAPO0fgukReSEdTXHixOW6IE9dl5ixYurHcg5EBGrXqUuHlEn4/KXL/Nt38BB9VaqUUYLIUaLQb8rcjHeId3X63AVat2EjJUiQwOA5+Mcf/Lzpd81oz/4DzId22qhxE8qXLx/tP3TYCBs8dKgRb+68+Rxv6PAfac7ceXTm/AX+oW2nTZvW4HN28bG2GSduXIKG165tG7px/bqzJAItLOb/YtKSZcsVdrb2fvLMWZo+c5bdXG6pUl/T3gMHGSfgjO+2Tbv2RhnbK80U72DNuvU0ZOgwTuvshYu0YfNmihUrNo2fOJGxQ1y8gxQpUnJc8/deukxZOnzkCL9nvLNuPXoY6Tu7+FhfEiFCBIqtTOagQQMH8Pndu3e0ZNFCvtbP+CYQD1mzZaMdu3YbWB45doI6d/nBrgS4Rzjwwg/Ym60v5ra5YvUaAtbgmzh5Mk/BrFWaLb4ZhC1bsVJptjajsfk9/dCtG+Fdg2/bjp3c39oVwuEmUcJEtGjJUo6D/PAezW0gR84c9ODBfcKgCKZu0P379+j48eN8nfizxHx25RAuQaJkH3QC+r8v9b2c/UYAH8T23bsJL9JMHz584HmhZ0+fUvasWfgROrx8BQrwNUwj2rFDz8/lL1iAZs+Zx8+haTiO3HJmy0pPnjwhfOBLlq/g51ojAS+ua9eoTn+oD90KwTmsTt169PjJY8qlPiDQ9p27fDhB6LJgjjpr5kxWkhYebwQC+j2V//ZbGjV6DKfy6PEjihI5itFeKpb/hk6ftg2wUqVOzTxv3rxhUxtuzO8TnRXahm6PzKwOuH/79q0RR4d37dKZli1dSlu376Bkn3/uIx74MEdaIH9eevniBS1ftZrnqI8r4VW1ciVLbbNZ8+a0SnWgN2/+S5u3bqMvkienY2rw6lXFZqbVZbF6DijGSB8dLgY2aOOPHj1Uwi0OZ3vq1CmqVKE8OwXNX7SYw8CD+XT8QIMG9CfMy0M4V6tRwylW+GaiRI3K/Ppw7949pW3lpo9979DM0OnjPeB9gIoVKUx///UXD5786kt0Xo7nmbPmsOkb7zBHNlu/5MjzsfuA4g2nuD+OHmP80P+9fvXacI6bOH4cjRo5kmCu146JGMxpIYv2WqJYUfpLmZD9apvO8N6qlJjvv2vq53tC+mh/aMeObTpqtGhqcLGLB13AxvytjRk9msaPtX2njrilTpOGVqqBBPr5mdOnGwMmR76P3Wu8w3+MUZ77joBXteqGkJ41cwalT5OaWrVo4SMCPkr9YXVo345NI02UpywaCDwyod2Y6eiRo8zT8vvvjeA69evz9Zhx47nz/efvv5VJKy2lS52KR3LokIf/9LPB79+LChUrGkJ67erVlC1LZur2QxcfAwb/piv8/kegVs1aHAkdU+7s2bktHNi3jzXQXLnzEAaIn376Kd389x9q1qQxtwO0K9D/YvyPO3e+8T7cvXuXO+aa1bw4BMLmjeosC+TNQ4XV4BGdD6hM2XJ81gfwoRPNnCE9jR1j65DgNAPtxBlZaZtTlBUJQjqoCdYjbX1o1LA+5c2Vi79daPkR1LcEgiYHjIE9vrMMadPQ7du3+RmsXmYCVn1792Y+DKRAENJTf51CaVKmMOYo4yqLAt6dmR6rwdhXJYqzMIJmBmrTtq2Zxbj2b1+iI6K8mJ8GTZvm90oPHcedZ/SVwAgDnuxZMnF7/G3qr9ymkyZLxlmlTJmS8QZmMNfjnegBUpUqVeyKAwtB+XJlKY/qP58/e8bPYGVq1KA+98P4dkDQds2EMhw+fJi/K/Dq9IcMG25mM6579erNQhrfSPGiRfhbQ18PcvaOMPiE1QrWLcxTY6CgrRocKYAHEdQBBA7RChYsyLGhOQ9UzlloPBs3rKd9e/bapfrVV18b96lTpeKOLmeunMbovLiD2bpHtx8Io85NmzYSOllQoYK2j0y7/d+6dYsbCjrNO7dtc09JPgv4koD8+fNzPtCU2rdry40fDhCHDh3icDkEHgJ6LhEd2LyFi6hho8bUtk0b7shnz5rJ7QydRrEiRejVm9dUvUYtSpbsc6OAadRo3kyzVBxoUbC2QOMGbdu6ldvWzVs36fLlyxwWJ45No+QbdYCQgqaDubZxY0YTBoegbNntOz8OVAdPtU2dvjvP0KAxUAaNmzCRBg4eTE+fPWGMK3xjG7DAW7fwl19Sly5dCFaOevUbUHSlYYHix4/HZ32ANjdv7hzu+JctsWnhSP+n4TYBAK1KU5y49nG7qvSvXb3KQqtzh47Mhk4e02qO5N++BPGLFStOPykNHXTu3Dl+l3wTiActOKFQ/L5+I3v8L1m8mPHWjm2NGzZgvFevXElVvbzIq1o1Q1GA5cVMJ5RZ+dzZs/Tw4QOlCR/nR7du36LdSvtFP7xB9cMgWKPMhHdSt1ZNgqUKvCuWL+fHyZI67ztzqsEC6K0S1F6qTOhvnyrLJgh1yZAhI1/rA1bS4N2BMCjANwwrqKtkM+C7mkoYjZ/ks8+45o8ePbJD4PqNa1SQbIIVDzKpJSya4AXoSJkzZabt27cZwZcuXTKu79+/b/tgVaOAaQ6NAwRNHD8zwVQEU40eYZqffew6dWrb3CNMc2Y6f+4s5VGOEUKBh0C/vn0pj7KyQOMD9vj1VNoaOqbqSivG++0/cCDVql3HGOz5Vbp73oM98HxQGg3o6bOnfMYBZnBndO3qNbvg69euE9p80mQ+OzVPtk27QrjpBp05rARt27VjK0TNWrUJPwxKBits58+bSzBfzp47z6nAdCzGq9c2xyGEv3xpu4ZQgMYGev7iOZ+dHQ4ePGAEHzx00LjOmSs3nTlj0851oJW+RPPiDA188tSp3E4gLCt/W978ONCuoXTs37uPy4MlTC1bt+EfLAgN1BQc6vl16TI0Sr0TPS3oV+H0gBM8b96+YdZXL14aUV69/O/aCFQXz54+Y0Guw06fOklVqlb1MUWhnydOnJgvYR1x1nfnzZ/P7h3BSgWCr8aocWPZp+NnNeAr/dVXHB7QgwjqgCKn4p0+fYqy58hB8VWHisYFLRiUI6dtFMY36nD1yhWe78K8S6vmzXQwRYwYSXWSb+i6MrfFT5jACPftAo0aHz9GatOn/aY09z0GK9KCeQYacUDor7+uE7R8rNU0E+bIhAIXAWgJX6oOAAK6ilc1Kqw054QJE1K69OlZM5o6ZQrB2QwEs+yGDRsIFpYJv/zi1oImSJTQLj3dRu/dtR/MgcmTbdOuEG68wfzitN+mUh2FZdHixSmX0p5glsYgaNnSJYwntFpoy4sWLqQTJ05Qi5YtSfsGuKso6dOlZ3Ms0kuXLp2R7Dk1SHYkK32JjoONNzAvjcE9rCFlvi7Fjnz6eWCf69WtzRpmnbp1qUjRYizEMMCDU2TBfHlpzLhxqk+MyGVdsGABXbt2lX5Wa8G1huqO8kaOEtkuGa2p677b7qG6gaIE5ef8+fP08/BhxmPddx9V8+5wBoSJ/eTJk7Rm1Srm2blzB82YNp0HgilTpiLM0cPHKKBkU88CGjuMx1u37ndGAA3pd+VtCEcI7PRl/tjAsGvXTuaLGDECL5HYtm0b4VdGzbF837IVpcuQgZ9bOWizaLZsOTgNpAPzZ5Nmzai2+gD0CN5KWmaew8oDGIQ5yLr16vM1GnHBgv9ZBjhQDh5HAIJi2oyZlDJVaure9QcqVCC/4SGdTJnSiiuhAsK7blC/HsEcnjhxIreXCx7Khb03xIFmhjlE0KmTJ5zm5am26TQzFwNhjQLGI0eNprnKZA1zKOaqQRgIY4CaNKlt7nTt2rU8z7ju97UUz8Hk7WIxOPqgIUONZAYr5zQQ3i3M4Y5ktS+Bh/Vs5b0PIQ0HtFIlSxjLhRzTDIx79CnAu3GTJjRcrTD4pkxpWqwGP6CYMWOyNzyENKhnj+7sSHdGedPrMH7ghgPS660sViB4/VdTc+egm//+y2fHA4QvKIlaI71v/37ucyGc0dej744aLSrlyp2LmjT9jn78aYTh1Y84BdW0CQgKmitCGmmIRg0UAkgw5WA+BY5YEGrwWgTBLAOnHk2b1HwJ5gLhHb50xUr+cDAfiPkMaMh9e/ei2HFia3Y/z6NHjiA4PkD7xZKOhw8e0udffMGdC5wkAkrLly+jH7p2Y0HdV823Y4mIo9NLQNOWeP5DAHO90KLhzFSvQQPVab8zHMTWKEe/A6rDwPI6dMKH/zxKcEbS0zD+y+nj3NNmzmQrDRx1QDCT/6KWHDkjT7VNZ3m5GgazPvCFUN67bz+dPnOGMmW0zTdiauHihQu8UUUq5VOC+VL4cEC71ji4mr85PjR0LIEDacG0aeMGM4txbaUvATOWMem0EidJQsdOnjLSwAVWD0BLDCzC1ADaNH5fKTPwP//epBzKGgmCpeLKlcvctlDmKVOnKa36L27zeD/upvoNGvI0BxQsnf5E72VVjnmhTZf8qhT3i38oJ9+/VbmSJv1cafkRlRn9Kf37zz9qUDFRCe5GHIZleZg+jKZM5drj/8D+fY7J+vteNGp/Q2YfoWOH9tS2dSt2zoHjFTw/V3o7KGhOjKjKff016blnjNYhpPGi4biFuUclr50SBDkonPcZG5T89ONwnqeEmRoDBDQ2mEAb1K3jNA1ngVrz1unDZF6jWlXDeQ1CGuXb6N1haD5naUmYexFo27q14cQH6wwcVvC+4KwEr2ksZ1owfx4P8mABgZD+XWl9+h3peWijVKbGZfA4CTP4vS8w8INDmRZOGIC2V97I2jFI56PT9G/b1PEc8w2Me6xzxbcHsza+RUwzwMQJr+6q3kvFsKwHTmf4vuAUhHnto2pwDNJl/0C271Pf254xi91Bf2/8XL1LM2GuHIMuCCnwwemvtTKxM6/pPb1//4G1s4/1JYj3icmzXKeN9M0/ziCQDtCe4VCH+iVO8hlPMwBXtGU4kYE6dezA9YMQRL8G07e20mh8NY7AQpPzd/Dfc82HM6aVsI0qpiqRP0zeKBeWJYIc2zT67Hq1a7LwRRxYmVA+WCmwJBHlwbRPBWUdhYBGmhjQQUjj2e9r1rAnOifuwkHWUbsAHua0+g8azC+3dauWbKrCS8T6TMy9wGxS+dsKdjngo8moRu43b940hKIdgz9u4GwUN248NTI+x50IOu1u3f3eLAHJP378mH4c9t98i2OWMAlFVZ0Xdi8TCjgCeg1kwFMgnsd7oRxjnG0OgraUUml8eKZ3QXIlLx1Xr1XdsWM7NVV/vIGlTJ8o7QNWIavk2DatxvMvnzswRntPnjIFnVVatTMcUf8oUaNw5+zf8vnGj6kEvW8Clm/pd3lZCQYtjHyLq8Pd2ZfoND92dgfesBjB4og5eGd1xaAITl8QgO4ivd4dghpLujD4/ExZGrTyZCUfxMGGPxfVxia+OeyCJ49aQvmvWoIIq4yrpPEW07cLSB4/fozn7WBC2bRlK4++oeViVAWCo4ojoWHqeQ/HZ/69x+hfr+tE3PjxElAN7zW4fqUF86VfghpLF/ATCnoE/DJPoi25ozP4WC2hffqXHNumf+MHJj/aOjQ734jr7z6Z4TSbgLxLd/YlTgvloUBoo36pANpi46HsOVlYEP0jpBEJcbApil8EHu1H4Beff5+JoPYvYiZ+mLRLl/qKfpk8hQU2tgyE5/UdJUB7qTleT7wwU/Y+Lh8+fOhnh6MjuOrYoNORc+hE4JZqvwmUl/ntW7dDZwWDQa2eP3vuVHsPBkULlUW4e/cO4333zt0QWT8xfYfI1yaFDgkIaLNVSChrSC2jYBy4b07wDhq8xZkscHGX3AQBQUAQEAQEAX8hIILaX3AJsyAgCAgCgoAgELgIiKAOXLwlN0FAEBAEBAFBwF8IiKD2F1zCLAgIAoKAICAIBC4CIqgDF2/JTRAQBAQBQUAQ8BcCIqj9BZcwCwKCgCAgCAgCgYuACOrAxVtyEwQEAUFAEBAE/IWACGp/wSXMgoAgIAgIAoJA4CLgY8OTwM1echMEBAFBQBAQBAQBvxDwsYXoqeO2f4fxK5I8EwQEgY8jILs4fRwjVzkEY1cR9F98wdt/eLnKrfEW07erSEp8QUAQEAQEAUHAgwiIoPYguJK0ICAICAKCgCDgKgIiqF1FUOILAoKAICAICAIeREAEtQfBlaQFAUFAEBAEBAFXERBB7SqCEl8QEAQEAUFAEPAgAiKoPQiuJC0ICAKCgCAgCLiKgAhqVxGU+IKAICAICAKCgAcREEHtQXAlaUFAEBAEBAFBwFUERFC7iqDEFwQEAUFAEBAEPIiACGoPgitJCwKCgCAgCAgCriIQIgT1J598QvkLFqAsWbJQ+PBBW2T/lCVSpIhUpEhR+ixp0o++p5j/i0l58uT5KN8XyZNT6jRpPsqXK1cuih07jp98ESJEoIKFviTUyS8KS2XzC4egeJYgQQIqVqw4RY0WLSiyDzN5JkqYiPBtCQkCwREBH3t9B7SQZ85foIgRnSfXp1cvmj9vLm3csoVSpEhJnTt2pJUrlttlBWFw+OhR2rdnL9WvV4efoXNatnwFpUqd2uD98OEDrV61kjp16MBhEG7zFi6i169fU6b06Qw+8wWE+8kzZylSpEjkVaUyHVP5DBk6jKrVqEEN6telvbv3mNn5+vS583T//n0qVCA/31spi06keo1a1LZ9O0InGy5cOA5+//49TfttKg0fOlSz8RlCd9r06ZQ4yWd8/+bNG9q4fj21b9fWjq+qlxd1VzgCJ9Czp09p1KiRNFPFNdPAwYOpSlUvQ/jevn2bWjb/nuus+TCAmL9wMWXJmpUHPsD0/LlzVL2aFz1/9kyz8YAgrJQtW/bsNHvOXIoSNSrp9moAEQQXaBdLli6jaNGjG7mfOXOaqlaqSG/evDXC5MI1BBo0akRdu/VQfYOt78J3umL5curapbNrCUtsPxFAP7bv0CHuk8+pvqd82TJ+8of1h25TTyEMIWQO7t/v43f27BnGOXw4W3ZDhg2j6DH+64DwMJy3phw+vE2wIWzlqtUspG/euklTf51CixYuYIH8bcVKNGjIELAYGja0wmrVq3OY46FGzVrcIMz8Rn7eZXKMo0pkpI1nVsoCvoqVKtPgoUMoYcKE9M/ff9PcObPpxPHjeERNv2tGY8aO42t9mLdgAQtpNNbZs2YSOopvKlSgFq1aaxZKlCgxDR3+I/0vxv9o27ZttH7dOhYovXr3oXTp0xt8GCDUrFWbBwcL5s/jfDFYgAAyWyImTJpCEEyPHj1kXO/cucPpzJw120gLF2GlbHgvi5VQhJAG6cEV3wTBAe9q5eo1LKTXrl7Ng7tbt25RhgwZafKvvwVBiUJnlqXLlCV8Q0QfaPHChTRr5gx69fKlGuhWpdZt24XOSgeTWk345RejT47g3fcHk6IFy2K4TVCjdnfv3KY6tWv5+B3580+7ykOoTpk6zS7M8ebTTz9lU9SDB/epcIEC3Fn17N6dihUuRNAAy5Qt6xiFmqgO1xk1adrUWbDlMP+Upf+AAZzupIkTqViRwtSvTx+qorSgcqW/5nKX/eYbY5BSqtTXbJ6GQMeIckC/flSrejWO37TZd0b5uql6Q3gsX7aMmjVpTG1ataSpU6bw8549ext8bdrbtPCW339PvXv25HzPnjnDAqhO3XrMFzlKFCpWrBi9fftWla8I41rky4I8AMqeIwdbAcAYVsoGq0pXhS86aAyAggMVKlSYLSK/r1nDlhUMUr/+qiQP4nLmzBkcihgqygBtGlS1UiXq0b0bDezfnyqqQTKoTBnR8BgIDxygJORTffrly5e4T/RAFqEuSbcKaivoQMhCk4PJuvy33/oaJVWqVCycrl+7bsdz9+5d6t71B5o6dapdOG4QBxqkmWBSdnXuyWpZYK6EqfLqlSs04uefzMWgS5cuqRH7TBaQVZVpGlSyVCk+D1MauKYTJ04wL7RnPXcMAQrcBg7op9lo9KgRbALNkCmDEZYwQUKCqXv79m1GWK+ePfi6aPFifM6TOw/jumnjRsPM/e7dO1q4YL43X3E+h5WyxY+fgN9XIdVxnD9/nuse1IdEiZPQv//8zRYWXRZMSTx48EDmqjUgbjjv27uXpk/7jTCloOmvv2z9TVRv64oOl7P7EBg7bjz3Z61atHBfoqE8pSAR1E28R7LDf/zJ147n9OnTrEFkzZaNOnXuQtBqNS1dsoQmTZigb/kMkzCofYeOfNaHjp068eXOnTt0kL/PVstSvHgJTvv3tWuc5jFoQH/KmC4tzZwxg5+n9p5736rm7s106uQJvoXzHChu3Lj0+MljevrkKd/jgHnKe3dvU/ToMTgM5nFo3RfU3LqZMB8PIf/5559zcBaFJ2j/vn181ofdu3bxZebMmfkcVso2a+Z0KlWyBD16/EhDEeTnRQvnU5FChejw4cNGWeLEiausL7Hp4cMHRphcuIbAuDGjacigQXaJjFZCBLRm9Sq7cLlxDwJNmn5HST77jK2DFy9ccE+iYSAVtwpqaAKHjxyx++0/9F9no/GE8MCcEJvAp/yqg32cBykzMoRP85Yt6cTpM7RLCZfByhnLUWtGxLOnT7Gm/k358nbpwIQF8/m5s2ftwv17Y6UsefLl42T3moQg6pg0WTK7n56fT5wkCWvYr169sivOpUuX+T57jpw8twxz9f179+x4cHPr1m124IsVKzblzJ2Ln1+/cc0HH8y6CZTmCMqQwaaBnz9nj8fpUzatIlXqNMwXVspmHvxwxYPpYfa8edwWRo0YGUxLGHKL1UdNOR05doLOXbzEUz7whRk5YkTIrVAwLTkccjt16cKWvB7dugbTUgbPYrlVUENzg6Zn93v7xmnNYZK9p4QP5irKlivnlAfOVWXV3O7GjRv45WIJRfUaNWn3vv3s8OEYafGiRayhf+VtUka6EHKLFix0ZPX3vZWyxIhh027vKvOzJq9q1Wnbjp12v5GjxvBjeJoqyHzQa2/BDeemCBFsr+jd23c++ZTzHgh80bxNdS+VUHYkmLaxFAv0aeTIfHbk0/eRvS0XYaVsDEYwP4wdP4HSpk1LBw4c4NUTwby4Ia54d+7cpVu3b7GfAhSD4iVKUqHChUNcPYJ7gUeNHsMOZN2VPwD6JCHrCLhVUN+6+S8VyJvH7gdHMGcE7+bGDeqzWfYnpSVoj1tHXphHWjVvTtmzZqGvShSnXTt3spY9WC2vcqQJ48fZ5j7a2JyqWrRqxfcTJ9qbyc3xtCe6Ocy364+V5fKlixw1Q6ZMRhIH9u/juUYIem3ifuM9eLl586ZquBENIaojpUyZki+PKesEBj1YehY7Thz92DgnUp7lGBxhPvOI4gV98UVyPpsPwBaDItB5b8tC2nTpzCyUPqPNe/ziRVsdwkrZ7EAIhjddfujKA9m/btyg+nVqB8MShvwi/TJhPJUp9RVlzZyJl2vGjx+fBg4aHPIrFoxqgBULJUqWZD8QOEkK+Q8Btwpq/2VNhLnfObNn8fzzuPG2uSGdBhzAyikzttZSEX7t6lVq3LABCyas2YaTl5lgxjx+7BhlUoIS5ub06TPQUSXAzGuDNf/Vq1f4Mk/evDrIOMeLF48F6D3luAayWpZjR48zf02l9WuCExm8ufHTczJnlBkfdEWbuJUXpJm0ED1y9E8Ovq9M9zFjxrRbYoUH6FCePH3CPEgbQjtFyhR8rw9wpsNynxvXb3DQce+lYvC8NFPOnLn59oyaQgCFlbJxZYPpoW69+tRMDVIxyPqmXFn22QimRQ2RxcIyLGwMZCbsqYCBL/qPj20YZI4n134j0LBxY2aA7wv2qNA/WDDghHv63AXSllC/UwqbT4NUUANyCDB4KjsKDiwhwprjvmrJhCPBnA2hdFUJbkcaP3Ysa9xLli3n8+jRzuf0Vq20OYtgeY7ZUQ3p9e7Tl5Pds2c3n62WZcnihfTi+XPKmz+/D9MZhH+dunU5vU3KlA/aunUrn/t6L+nCDToIONBhcKHnT08eP8Fz0R07dWZ+HBo0bMhm/QtqoxlN6NCxoYx2CEP4j8phD7Rr904+H1TmU2BX1asaD0Y4UB2afNeUL3cqMz0oLJWNKxzMDui0MHeKNlBGXTsbbAazIoe44vQfMJBmqL0D9LQQKoBBbTQ1hQWLH1anCLkHAShM2CviglIoLl++bPyQOvbfwFIt7Ocg5ByBiM6DAxYaJ248mjh5so/IE8eNo5MnT/oI1wEN6tWl39dvYMGqw+bMnq3Wt/bgDUSSJ0+hlhxtJ8yfVlQ7i2GkC+cwZ/McWJqEXbu0p7SzXceQB0bNWGOcXjlX7VbOXxs3bFBe1HepqPLczpgxI8HBa+aMmVwc/5RlqNqIZYDyJJ2m4u7atZMOK2c6pAdhjwEGvNO1Yxt2Z2uhHOVgFpozdx798cdhqlO/PuOAeRxNXTp3pAOH/qDv1Pro+Gr52VtlOq9cxYsd0Vq3aK7ZeM0t0pk7f4GyVMymDCpfbL2KDWOmTJrEfPAaxjIxCPqNm7fS4sWL6Vu1TA7LwbC5xpUrNke2sFQ2A8BgcoH2MuGXSdwOTikLx5Dh9tM8A9RAEu9UyDUE1igTrFe1arTv4EHCShL4hkDLxrdwQPUJENZC7kEAO1Pi50jnlVURllLZmcwRGft7twpqaKbYKMORdiktDYIampwzgtn2t6m/8s5dmgVCGI5k89X2oNC2zRo3vMZr16zBSemPyZz2ypUrqHadurR86TIjuw/vbXlrfjyoWKE8zVFCLXfu3OykppmxVru6V1UW5gizWhbwojFCsx0xciTv8429vkEoHzzde/fqyff60EgJzEVLl7BTHRzrsBEJOg3zPA60qi6dO9HgwUMNJzpoWEMGDyaUVRM6Fyz9ql2nDptMEY5RapMGDTQLn7FMLKvaPhTrszuo7VxRNgxaOnW0bcuqmcNK2XR9dRvSZx0e2Gdo03onuXzeKwnMZfhNbXYjgtqMSMCusR/D+/fv1DflxX0PUkH/gME0NhYSChwE3utOP3CyC5G5hEuQKJkhPTNlzUGnjtuckoJTbTBPnT9/AXr24hkdUqZbOFi5m/hPLJTD1u7du+nlixe+Ju+fsmBtc558eXnEeFJtZGIeJDhmgCVnmFvfsWOHn3zQtiKqPcsxF+8XFS5chC6q+XFYDnwjDKyKFiuu6rzLT9NqWCqbb1gFJDy4fk8BqUtwjeMujOGH8qlaShlcNr0J7XgH1/oFt3Lp9h0iBHVwA0/KIwhYQUB/ZFZ4hSdgCAjGAcMtoLEE74AiF7B4Gu/wAYsusQQBQUAQEAQEAUEgMBAQQR0YKEsegoAgIAgIAoJAABEQQR1A4CSaICAICAKCgCAQGAiIoA4MlCUPQUAQEAQEAUEggAiIoA4gcBJNEBAEBAFBQBAIDAREUAcGypKHICAICAKCgCAQQAREUAcQOIkmCAgCgoAgIAgEBgIiqAMDZclDEBAEBAFBQBAIIAIiqAMInEQTBAQBQUAQEAQCAwER1IGBsuQhCAgCgoAgIAgEEAEfW4gGMB2JJggIAoKAICAICAIeQMDHv2ddvHDeA9lIkoJA2EMgdZq0JN+TZ9+7YOxZfB1TF7wdEfHsvcZbTN+exVlSFwQEAUFAEBAEXEJABLVL8ElkQUAQEAQEAUHAswiIoPYsvpK6ICAICAKCgCDgEgIiqF2CTyILAoKAICAICAKeRUAEtWfxldQFAUFAEBAEBAGXEBBB7RJ8ElkQEAQEAUFAEPAsAiKoPYuvpC4ICAKCgCAgCLiEgAhql+CTyIKAICAICAKCgGcREEHtWXwldUFAEBAEBAFBwCUERFC7BJ9EFgQEAUFAEBAEPItAiBDUn3zyCeXNl48yZcpE4cMHbZH9U5aIESNSoUKFKMlnn330Lf7vf/+jXLlyfpTv888/p1SpU32UL0eOHBQ7Vmw/+SJEiED5C+Qn1MkvCg1lS5gwIQG70EZW3rNfdY4VKxYVKVyY4saN6xcbWW0rfiYShh5aaW+Ro0Tm/gG8YYms1Bv9PPrDtGnThiVofK2rj72+feX8yIOjx49RRNXxO6MBAwbSooULac3aNZQ8eXLq3q07rV692o4VwmDvvr10YP8BatKkCT+LGjUqLVgwn1Km+k8wffjwgdauXUvdunZjHrzMmbNm0evXrylnDueCDi/9jz//oEiRIlHtWrXo+PET1H/AAKpatQo1bdqU9u/bb1cW3Bw5eoQePHhAJYqX4GdWyqIT8fLyopatWlL8+PEpXLhwHPz+/XuaOXMmjfh5hGbjM4TupEmTKHHixHz/5s0b2rxpM3Xp0sWOr1LlSvTDDz8QcAI9e/aMxo0bT3Nmz7bj69u3D1WsVMkQvnfu3KF2bdtynTUjBhCzVLzMmW0DH2B64cIFqlunLj1//lyz8YAgpJetbr161LlzJ0KdQXgPq1etpp49e/L9fNW+smTJwtfODkWLFKV79+45e+TxsNq1a1O37t14cJo9W3Z6+/atkaeV9wxm39JImiwZLVy4gGLGjGmkee3aNWrcqDHdunXLCLPaVowIIfji93W/82AO32CO7Dl8rYlffB9rb0j0008/pSVLl1CKFCmMPB4/fkzVqlWnv//6ywgLbRdW6z1s+DD65ptvjL7z7bt31KVTZ9q0aZNTSPoN6E9eVavyM/S9Z8+cdYnPaeQgDnSbehpeCSQ08EMHD/n4nT9nA05rw/0VsNGiR7erun6mBRseLl6ymIU0Oo7p06erxr2UBXL58uWpX7++HF/Hg1ZYpUoVuzT1jVe1aiykca/5w4e3CVB9r3n1GeUwP7NSFsStUKEC9evfjxIkSED//vOPGmgsoJMnT3KyjRo1op9//llnwecZM2ewkD6vBOW8efNYkJQtV5aaff+9wZcwYSIaOHAgxYgRg3bu3EmbNm6kKFGiULduXe1GnGik1apX5wa+eNEizheDhd9+m2ZXl7HjxlLWrFno0eNHjOvdu3c5nV+nTjXyxEVIL1upUqUYIwxEli5dRnPnzqVXL1+pgUxFatGyBdd10+bNdPDAQR8/LRTRpgOb0O7GjR9HPXr2sHtvuhxW3rNfaeDbW75sGQtpDFrHjh1HaH9ffPEFzZo1U2fDZ6ttxS5SCLypV7+eYXEx90GOVfGLz0p7Q3pz1XcOIX3m9BkaPnw4/fnnnzwAX7RooWN2oereSr07dGhP6N8fPLhPo0aNpmWqnUIBHDlqpFOrDxS/qqZ+P3w45yLNKl9wBdxtGjUqiA4fwuhjBKE6ceJEalC/vq+sGH3BVPng4QMqWaKkwTduzFjavmM7lfr6ayWs+xvhuGjUqCG/WLtAddOwYQPHIH/d+6csvXr34rSn/vorjR49xsgnRcqUtGrVSipdpjT17dePnj19SiVLlmDzNAR6lUqVmXflipW0UH2wqMuUyZM5DBohOg8805pgxw4dqHHTJtS1a1fDAqGFT7s2bWnnrl0cd+mypZQuXTqqWbMmDwRgdiqsTJ0YpZYuVZo16NHqgzh0+BBly5aVrQDQwkND2aDdgGqpup89e46v58+bz5YddKq/TPyFpk39jX/80PsAK8fKlSvpwsWLBE0nsAlCumjRonT9+nV68/qNj6kOK+/ZrzSgrUSJGoUOHTpMjRo25OqhraF9wnqFaaaDBw6Q1bYS2Pi4Oz/0R+3bt2dFA1a0OHHiOM3iY3xW2hsGUOnSpWWrRTWlQIBmz5qttMWNlDhJEooTOw7dV0IqtJHVepcrV46VlfLfVDC+vUgRI1GFbyuwEjRjxgw7aCDA0Tdi0JMhYwa7Z+Ybq3zmOMHp2vnww4MlhHbz6NEjnn/AS/GNUqRMwS/gxnV7UxDMkL1796YZM+xH/kgHwhAapJlgUnZ1btJqWdDBR4sWjWBCNAtplOfK5cs0T2l00NQqKdM0qLi3Wf0nkzn81KlTzAvtGR0DCAIUuA0ZOpTvcRg7bhynlS59OiMMWjyErBbSeNBfDQpAhYsU5nOunLkY161Kk9Rm7ndKaC9ZsoSfF/HmCw1lO3Bgv9IQZxlCGhX8y9u0GFVZJHyj/v0H8KNBanokKAjm6A3r11O5suXo+Yv/piJ0Way8Z7/SKFq0CCc1ccJ4nSSfpymrFahOnTp8ttpWmDkEH/r378/m6LFKCXhnml5wrNLH+Ky0N/ir3Lx5kxYtWmyX/NlztoGkX8LGLkIIu7Fa70ePHtMupWSYB8iYEgWlTp3artYlSpRgSyAGnOfP+/73zFb57BIPZjdBIqhbNG/OMAwaPIgw9+uMMM+A+cQsWTKr0W47/pA034rlK+jXKVP0LZ9hEga1btOGz/rQVs3Pgnbv3q2D/H22WhbMZ4LWr1vnNI+hQ4fx3NfcOXP4uZ5737F9ux3/qdOn+R7Oc6A4ceLSkydPWAvnAHWAwIcFI7oS6CCYxzGyvHjhIt/rA0ybEPLJ1JwkKLP3fOyBA4c0C5/37rF9DBkzZeT70FC2iRMm0o/Df7Sr588jRvD977//bheubzCoy549G2uzf/zxpw4O1HPz71tQJzUn54ysvme/0ogYISIn/e7de7ssIirNBZQsWVI+W20rzBxCDxhcl69QnqepML3mG1nhs9Le/rpxg0p9VYomK78UM2k/iSNHjpiDQ8211XpjWqdVy1Z29S5Z8iu+xxSBJjg3Dh06hPvBDsoa4htZ5fMtfnAJd6ugTpQoEe3Zu8fut3PXDh91hfDAnCE0xvHj7Uf1ZuZhSrBB+DT97js6/Mdh2rJ1C8FxwFFrRpyzZ86wpl62bBlzEgQTJ8znfo247CL4cmOlLLnz5ObYBw4eNFJBHT9LmtTup+fnEydOxCboV69eGfy4uHLlKt9ny5aN5yhhgrx/36c57PbtOzx/A8/dHDmzc5wbN67z2XzAvKzGLL0yu4EuXLAfgZ7xdsBImTI1Pw/pZeNKeB8w1wtt5/iJ42zSh68D5mWdEbQm0LAh/1kvnPF5Muzp0ye+Jm/1PfuVxtat2zj9jp06GfnANNmggW0qKl68uBxuta0YiYTAizFjbNNTrVq19rP0VvmQiH/aG/h/6PoDxYsXj/bs3mNYuRAe2slKvQt+WZC/WVhhMV+tqUfP7uznNEENxh8+fKiDfZyt8vmIGMwC3CqooblB0zP/3rx567TKMMnev39PzYflpa9Ll3bKA+eqihUr0ubNW7gBYxkDvPu2btvKDkGOkfAioaHD1AFCuhByy5YsdWT1972VskT3dpC7c+eukX7lylVow4b1dr8ffxzOzyNGUpqNwsyRXnsLbswjogMFvXv7zpGN59QQCMeyqFFslomXDkIfz9+9f0cRwkfAJX0aOTKfX758yWd9ePXKdo/5eFBIL5uuF853796j27dvsyMZBn7F1PwvOgBHwjQJBlswTZqnDxz5gvLe6nv2q4wrV63gbw+Wg23bt9Gvyp9i1+5dhhfyW++2ZrWt+JVXcH6GlRTJkydn50y/BvJW+XRdrbY38MOxsb7y1YGpt4PyOwkrZKXesG7Blwlypfn3Niss8IFVCR7ymOZztKya8bPKZ44TXK/dKqjhnQ3zr/lndgQzgwCzdrNm3/NLgAkDwsYZXbp4idq3a0f58ubjOTuMOtHZYnmVI02aNNn2UlvYXmqzZs34fvJkezO5OZ5vXoJmHn39sbJcvnKFWTOkT6+j0MFDB9mJC4J+u7eJWw9ebt28zcuGYJ4xU3LvZRvHjx3nQQ+WnsWOE8vMwtcJE8Tn+v377790TC2PAzmbjwe2GBSBLnjP5aRJm4bv9SGtcjgDXb50ic8hvWxcCe8DHKUqVPiW8uTJw8vxoL307dPHzMLX0KbRthw9830wBmGA1ffsVxFfvnhJ31aoyA44sWPHpgIFC3A7hKMiOsW///6bo1ttK37lFVyfYdlZzx49eRVJ9+49fC2mVT5zAlbbG/YwGDRoEA+4vbyqhRlt2kq9sQcElrABfyxLPXHihAHx6DGjWIHp2KGjEebswiqfs7jBLcytgtq/lcPc7/z583n+ecTIkXbRIXDKKDN29Oi2OVg8hBfs92rZEgQTXPbhPGYmeFKfOHGSMmTIwKZmeFceU8JOO02Zea9evca3uXPnMgfzNTZ/QAPR62etluWkMumDMM+iCU5kQwYP4d9lNegAnfNernbVW7BnzZpVs/M5TRqbED16zCZ84Yn6v5ixDO1aM8eLF5+eqjqDMIhAJwsNwUzQEqGVaycq4APC8iwzYeMM0JmzZ/kcGsqGUbuuF1dKHbBmHu0H0xHmDWEwNQCBhQHN+nXrNXuwO1t9zx8rOMyF8DrG+mz8MBC+fu26t5/DBY5uta18LK/g+Dx//vzs+Y69FfaraRHsm4AfPK/x7R89dpSVAat8qKN/2hs28pikBpDvlMJSp3Yd+sd7cBQcsXJnmazUG1a9FcrqA+sofEwcv8fMmTNzkaZNn2a8t28rfsth89S+CFi9ALLKx8zB/BCkghrYQIjBhOEoOAoXKcKaTc9ePke7MGdDKF1X3tWONEmZSqAVzZ8/l8/j1VIXZ/S72jQFVEVteqLNvZqve/fufLlv3z4+Wy0LTO8vnr+gPHnz+DCtQvjXqFWT09uiTPmgHTt28LlnL9uSLtxAgMCBDoMLDDxA8ATHwKRdu7Z8j0OdunXZrH9RLSHShHlsCOqMGW0OYQgfrBz2QLv32pzFDh8+zNhVUsvB0CFp0kvY9ng73YWGsvXu1ZvNumaLBQYtmKKARQfryDX1Vevy0W7GmJbU6WfB7WzlPftVZqwFhlBq3do2L4upKtDgIYP5jLXlIKtthZlD2OGWmt7A2nEswbty9arxe6tWQIBgHbuknlnlQxyr7Q1TeLCwYe+JZsr/5rS38yjSCM1kpd74Ppeo/TPQX076ZRKv2nDEBD5OeHfm96aVsVtqEK6VDat8jukHx/twCRIlMyZJM2XNobyGzweonHDUweYQu3fv8REfHo5ojNjRJ6kSRFmz2GuQ8KhcsWIFd5TYfKJx48a8ZSEcyDDiBeC7du2kyGqkVV5tKIIXjjmlKmr+N4+aU5w+YwavOdYOQgcOHuBlUk+ePKEC+QtweTp26sjp1lVLT44etWmqeo0xtIvNW7bQfeVFXUSZ7tNnSE9w8Cr/jfIGVS8eHb2VsiCj6jVqUJ8+vVkY7tmzR21mcIQyqCVUhQsXYcEK7/SWLVoaGOm1q6j3kSN/Ui21GxV2H+vcubMxkoTzGeoPwYpdtd68U0u81Ny9AoxKqiVeWvPHfP+0adNYyC9Q64XTKRP8l4W+5DWb5imI7mq3Kwh67IK0THnQf6M2WIGX97rf19ntiBbSyzZw0ECqXLkyOxNipQDm/rFrG5wedTvDi4BmvXP3TvasL1igoPFuXL1InSZtgL8nnbfeOc28M5nV9+xbGhjo7lfrpCOoThFr82+odvCtWqeKDU+wOsI8H2i1rei8AvvsDozNZd60eRM7XgJvv8gZn5X2BudS+AVg+Rz8JrTVQue1VC2T1CtYdFhwOgcUb6v1njbtN17Hjzpv2bLVruqY9sG+B85o6LChvM66upq79mvgY5XPWR5BEabx/k+lckMpoJliowxHgsACeNCCnRHMeTOUsLVtlmLjwdreit9WVFtdzmJt26xxQ3A3bNCAk4JmBDKnvWbNaqpRoyatUptWGPTelq7mR3g1NS8EIZ8zZw5jCzqEQ/DVUdtpQkiDrJYFvNgq9b6KP2zYMN7HF3t9g1A+eLoP8PYq5kB1+F45ScyZO4ed6tABY0QPoWI290Cz7tGjB6+JhnkNhBHkjz/+ZAhphEH4YOkXBgvYDAWEJVzNlS+AmbBMLFPmLLw+u02b1ly2c2odZ7du3cxsIb5s0HBgWsS6db0RD96/42AJXrrQpjGCD27k7JOx+p51XRzTwBz1d2qb3l9UfeEoBUL7RBtoqzbLMZPVtmKOE6KvHcHyrTJO+Ky0t/hqrwO9bSvWwzv2l3fv3g7Wgto3OD4WbrXe2bL/N0ByxCZVqpS+CmryFi3vP9jkga/lscrnawJB88BtGrUni4956nz58tAzJZwOq8Xt2lTnzjz5zw2UYw0W16Mj8438UxZ4HWIOHHPrMF+bBwmO6WOOFHPr0Gj84oO2j516zM4Vjmnh/ssvv6TLan5cDzac8WBghV3K9iqzuDYdOeMLDWWDn8GnSpuBqTOwSI+GPZmflffsV/6YM4Tz4lZlUfLru7LaVvzKyxPPAgPjgJQ7KNpbQMrp3zjBFW//1iOk8Gu8Q4SgDimgSjkFATMC+iMzh8m1exEQjN2L58dSE7w/hpB7n2u8g9yZzL3VktQEAUFAEBAEBIHQhYAI6tD1PqU2goAgIAgIAqEMARHUoeyFSnUEAUFAEBAEQhcCIqhD1/uU2ggCgoAgIAiEMgREUIeyFyrVEQQEAUFAEAhdCIigDl3vU2ojCAgCgoAgEMoQEEEdyl6oVEcQEAQEAUEgdCEggjp0vU+pjSAgCAgCgkAoQ0AEdSh7oVIdQUAQEAQEgdCFgAjq0PU+pTaCgCAgCAgCoQwBH1uIhrL6SXUEAUFAEBAEBIEQjYCPf886dfxIiK6QFF4QCC4I4G9j5Xvy7NsQjD2Lr2PqgrcjIp6913iL6duzOEvqgoAgIAgIAoKASwiIoHYJPoksCAgCgoAgIAh4FgER1J7FV1IXBAQBQUAQEARcQkAEtUvwSWRBQBAQBAQBQcCzCIig9iy+krogIAgIAoKAIOASAiKoXYJPIgsCgoAgIAgIAp5FQAS1Z/GV1AUBQUAQEAQEAZcQEEHtEnwSWRAQBAQBQUAQ8CwCIqg9i6+kLggIAoKAICAIuISACGqX4JPIgoAgIAgIAoKAZxEIEYL6k08+ofwFC1CWLFkofPigLbJ/yhIpUkQqUqQofZY06UffYsz/xaQ8efJ8lO+L5MkpdZo0H+XLlSsXxY4dx0++CBEiUMFCXxLq5BeFhrL5VT88ixotGmXIkDHI25djOa2+I8d4cu8/BKx+V/5LVbh9Q8BK/+Rb3LAY7mOv74CCcOb8BYoY0XlyfXr1ovnz5tLGLVsoRYqU1LljR1q5YrldVhAGh48epX179lL9enX4GTrPZctXUKrUqQ3eDx8+0OpVK6lThw4cBuE2b+Eiev36NWVKn87gM19AuJ88c5YiRYpEXlUq0zGVz5Chw6hajRrUoH5d2rt7j5mdr0+fO0/379+nQgXy872VsuhEqteoRW3bt6MECRJQuHDhOPj9+/c07bepNHzoUM3GZwjdadOnU+Ikn/H9mzdvaOP69dS+XVs7vqpeXtRd4QicQM+ePqVRo0bSTBXXTAMHD6YqVb0M4Xv79m1q2fx7rrPmwwBi/sLFlCVrVhZMwPT8uXNUvZoXPX/2TLPxgCCklm2pajdZs2Uz6uJ4USBvHrp79y6hw5g6bQZFjxGdWYDF5cuXqZpqJ0+ePHGMFmj3Vt9RoBUolGZk9bsKpdUP9GpZ6Z8CvVAhIEO3qacQhhAyB/fv9/E7e/YMQxE+nC27IcOGGR2jxiict6YcPrxNsCF85arVLKRv3rpJU3+dQosWLmCB/G3FSjRoyBBbmt7xoBVWq15dJ2d3rlGzFgtpBGqN3MjPu0x2EfgmnMGLWytlAV/FSpVp8NAhlDBhQvrn779p7pzZdOL4cTyipt81ozFjx/G1PsxbsICF9DklKGfPmkkQ6N9UqEAtWrXWLJQoUWIaOvxH+l+M/9G2bdto/bp1FCVqVOrVuw+lS5/e4MMAoWat2jw4WDB/HueLwcLsOXPt6jJh0hTKlj07PXr0kHG9c+cOpzNz1mwjLVyE5LJt2LCeDuzb5+P35s1bruOb12+4DWKQByG9c+cO+mXCeLp69QqlSpWKVq1Za4dFYN9YfUeBXa7QlJ/V7yo01Tko62K1fwrKMgbXvH38zWVA/+3n3MVLdOvmv1SkUCFf67p56zaCiQl06NAhql3jP8EaK1ZsOvTnn9yx1q1Tmz799FM6cfoMPXz4gPIqrUdTvHjxaO+Bg/T48SPKnSMH5cuXj+bMX8CPL126RGVKfaVZjbM53+peVemIygeCz6taNWrUoD7t3rXL4NUXp89d4LwL5struSyIe/T4CYoWPTpNmjiRRvz8k06OO/91Gzfxfc7sWenpk6dUqtTXNHHyZBboRQvbcIN5f9nKVfT4yWPK5a0Rjh4zloX3sqVLqWuXzpxGlx+6UrPmze0sELuUYEqUMBF917gxbd++jflWr/2d0mfIQAP69eOBQOQoUej4yVP07t07ypUjO2vQMK8eP3WatfAv8+cjaOGhoWwG+N4XsF6s27CRzp8/T9+UKU1169Wnvv3704rly6lLp44G+579B9gakiVTRnr54oUR7t8L/c83/o1n9R35N93QyB9QjIGF1e8qNOIW0Dq5greV/img5Qqt8TTebtOorQIF0yI0OZisy3/7ra/RoNXAbHz92nU7Hpgru3f9gaZOnWoXjhvEgQZpJpiU9eDAHO6fa6tlgSCAkL565YqdkEZeGETMmjmT3r59S1WVaRpUslQpPg9TGrimEydOMC+0Zz13nF0NSIDbwAH9NBuNHjVCWTDeUoZMGYywhAkSspDVQhoPevXswc+LFi/G5zy58zCumzZuNMzcENoLF8z35ivO59BQNq6I6YDpDlC/3r34HCdObD6fPGGzePCNOvx14y++XO8y4QAAG6ZJREFUjBUzlg4K1LPVdxSohQqFmVn9rkJh1YOkSlb6pyApWAjINEgEdZNGjRia4T/+xE48znA6ffo0m4Exz9ipcxfWajXf0iVLaNKECfqWzzAJg9p3+E8zwn3HTp1wYtMmXwTgYLUsxYuX4NR/X7vGaS6DBvSnjOnS0swZM/h5au+5961q7t5Mp06e4Fto16C4ceOyhg0tXBOE9L27tyl69BgcBDMeBjYX1Ny6mTAfDyH/+eefc3AWby19v9K+zaStCpkzZ+bg0FA2c/0wWMuRMyddu3qVrTl4NmvmLMamTbt2xmCuXPnylF1ZGjAdcFNZiIKCrL6joChbaMrTyncVmuoblHWx2j8FZRmDc95uFdSJEiehw0eO2P32Hzrso/4QHosXLmSNccqUX3081wGDBgxg4dO8ZUs2g8N0Mlg5YzlqzeA/e/oUa+rfqI7WTGXKlKEHD+7TubNnzcH+vrZSljzKDA/aaxKC0IqTJktm99OOS4mTJGEN+9WrV3bluXTpMt9nz5GT55ZhCr1/754dD25u3brNDnyYNsiZ2zY9cP3GNR98r16+pATxbZaGDMoMDjp/zh6P08r0DUqV2uZRHtLLxpUxHYYMGcp3eI+aMK0Cx8Vo0aITpkcuXL7CPgRP1LRD/bp1NFugn62+o0AvWCjKEL4qVr6rUFTlIK2K1f4pSAsZjDN3q6CG5gZNz+739o3T6sMke08Jn3wFClDZcuWc8sC5qmzpr2njxg1spsX8a/UaNWn3vv3Ks7mqjziLFy1iDf0rb5My0sXHuGjBQh+8/g2wUpYYMWza7V01x6vJq1p12rZjp91v5Kgx/BievQoyH/TaW3DDYSxCBNsrevf2nU8+5bwHAl809QO9VELZkWDaxjw06NPIkfnsyKfvIyvfAFBILxtXwvuA6Q8Mom7++48xd49HeF9jx43nwQ686P+6cYPbbkxl8u7Zq7c5iUC9tvqOArVQoSwzq99VKKt2kFXHav8UZAUM5hm7VVDDmQzLXsy/wkoQOyN4NzdWjlwQ7j+NGMnCxhnfxQsXqJVymsqeNQt9VaI47dq5k7Xswd7zjeY4E8aP4/RatbEtbWrRqhXfT5xobyY3x9Ge6OYw364/VpbLly5y1AyZMhlJHNi/j524IOi1ifuN9+Dl5s2bLBC1ENWRUqZMyZfHlHUCgx4sPYsdJ45+bJwTKc9y4PfvP3/TEcUL+uKL5Hw2HyDIMSgCnfe2LKRNl87MQukz2rzHL1601SGkl81cuSHKCoNpgaEOS+MmTJzEa81/m/ort6/iRYtQ9iyZ6JLCoFDhwr6uIjCn7Ylrq+/IE3mHlTStfldhBQ9P19Nq/+TpcoTU9N0qqP0LAuZ+58yexfPP48aPt4uOOUXMF2otFQ8xv9i4YQMWTFizDScvM2EO9/ixY5RJCUqYm9Onz0BHlQAzrw3W/FiGA8qTN68OMs7wLIdGeU85roGsluXYUZtTUk2l9WuCExk8rvGDoAedUd7soCvaxK2WSplJC9EjR//k4PvKdB8zZky7JVZ4ED9+fHry9AnzIG0I7RQpU/C9PkCbhJnvxvUbHHTce6kYlmeZKWfO3Hx7Rk0hgEJD2VAPTJN8qVYiYKDy+xp734FMWTOzH8Qw76V+4MegaLi3c1+p0mUQFOhk9R0FesFCWYZWvqtQVuUgq47V/inIChjMMw5SQQ1sIMCwHMhRcBQrVoznC7F8xpFgzoZQuqoEtyONHzuWtacly5bzefTokY4sfL9KLYECYdMTLAUzU+8+ffl2z57dfLZaliWLF9KL588pb/78rJGZ04Twr1O3LgdtUqZ80NatW/nc1zRvigEGHOgwuNDOYyfVki8MTDp26sz8ODRo2JDN+hfURjOaIIywoYx2CEP4j8phD7Rr904+HzxwgLGr6lWNByMcqA5NvmvKlzuVmR4UGsqGegwcPITbgXmpHMJBd5XDGAYx2JHMTIWLFuXbixfsHfPMPJ68tvqOPFmGsJC21e8qLGARGHW00j8FRjlCYh5uXUeNDU+wcYQjTRw3jk6ePMkOO8mU93G61PaaMJY1/b5+A3eo2KQC66hhDsY6auwmBuez7du3E+ZPK1apzGuF4RxWvlxZYx01NqsYOWIEZ63XMpvXIv/QrRt91+x70uuowajXGMOpaOOGDaxBF1We2xkzZiQ4eJUqWZK1d6tlQZq1atehAYMGsTDctWsnHVbOdEgPwh4DDHinN2vSGKxM69Xaauy8hnr/8cdhqlO/Pu8+1q5tG0MDhPPZgUN/sLDGmt+3ynReuYqXwouosNpaFUvWQJjvnzN3Hgv5ObNnUwaVb+EiRQgbxpinIHqpgQgEPeZkFy9eTN+qZXIow9rVq+12RAvpZcMWqgcOH2aP+dwOFgTgBQyABZbMrV2zmq5du075lIUFOGJqpqjSxF3x/NZrIJGXf8nqO/JvuqGN3xWMrX5XoQ0zV+rjCt5W+ydXyhfa4mq83Sqo9a5fjmDpLUQ3bdlKn3/xhQ9BDf6u3bvzzl379+6jenVrcxIwOc9XO0fBxGsmCO7aNWuwmVJvITpRzU+PGmnTnvsPHEi169QlLIPCkiiQ3iBEbyGKMJQXm6Xkzp2bBwkIA0HwQaDfuH7dFqCOVsqimb9WJtMRqiwQzJpgAViinN169+rJm43ocJimFy1dwoMPhEForFyxgrr90EWz8BnTAIMHDzV2dIPGPURtF6rXP2tmdPC169ThAQ7CsMyoYb26vMmH5sF50ZKlahlSDq43yoaBT6VvK4SqsukNLYaogdP0ab+Zq29cY9OTbj162FlVMPJvpAZMZ87YPOENZn9e6I/Mn9EMdivvyGAOoxeuYmz1uwqj8Pqotqt4W+2ffGQcRgM03m4T1J7EEfPU+fMXoGcvntEhZbqFI4i7iTeJVw5bu3fv9nM3Kv+UBWsH86idzTC3flJtZAItzTfCXCrm1nfs2OEnH7TziMrKgLl4v6hw4SJ0Uc2Pw9HMN4LJv2ix4qrOu5zO4+t4oaFsui6+naF9p1Tz+9hwBvPU7iD9kbmSltV35EoeITmuOzBG/a1+VyEZK3eU3V14W+mf3FHekJ6GxjtECOqQDraUP2wioD+ysFn7wKm1YBw4OOtcBG+NROCcNd7hAyc7yUUQEAQEAUFAEBAEAoKACOqAoCZxBAFBQBAQBASBQEJABHUgAS3ZCAKCgCAgCAgCAUFABHVAUJM4goAgIAgIAoJAICEggjqQgJZsBAFBQBAQBASBgCAggjogqEkcQUAQEAQEAUEgkBAQQR1IQEs2goAgIAgIAoJAQBAQQR0Q1CSOICAICAKCgCAQSAiIoA4koCUbQUAQEAQEAUEgIAiIoA4IahJHEBAEBAFBQBAIJAR8bCEaSPlKNoKAICAICAKCgCBgAYGIjjxB9R+8juWQe0EgpCOQOk1aku/Js29RMPYsvo6pC96OiHj2XuMtpm/P4iypCwKCgCAgCAgCLiEggtol+CSyICAICAKCgCDgWQREUHsWX0ldEBAEBAFBQBBwCQER1C7BJ5EFAUFAEBAEBAHPIiCC2rP4SuqCgCAgCAgCgoBLCIigdgk+iSwICAKCgCAgCHgWARHUnsVXUhcEBAFBQBAQBFxCQAS1S/BJZEFAEBAEBAFBwLMIiKD2LL6SuiAgCAgCgoAg4BICIqhdgk8iCwKCgCAgCAgCnkUgRAjqTz75hPLmy0eZMmWi8OGDtsj+KUvEiBGpUKFClOSzzz76Fv/3v/9Rrlw5P8r3+eefU6rUqT7KlyNHDoodK7affBEiRKD8BfIT6uQXhYayxY8fn5InT+5XNeVZGEZA2kfgvvykyZKpPj0voY8U+jgCbkPp6PFjFFF1/M5owICBtGjhQlqzdg13lt27dafVq1fbsUIY7N23lw7sP0BNmjThZ1GjRqUFC+ZTylT/CaYPHz7Q2rVrqVvXbswD4TZz1ix6/fo15czhXNBBuP/x5x8UKVIkql2rFh0/foL6DxhAVatWoaZNm9L+ffvtyoKbI0eP0IMHD6hE8RL8zEpZdCJeXl7UslVLwscfLlw4Dn7//j3NnDmTRvw8QrPxGUJ30qRJlDhxYr5/8+YNbd60mbp06WLHV6lyJfrhhx8IOIGePXtG48aNpzmzZ9vx9e3bhypWqmQI3zt37lC7tm25zpoRH8csFS9zZtvAB5heuHCB6tapS8+fP9dsPCAI6WVr2LAhtWvfjt89Kob3sGXzZurQoaNRT92GjADTxZTJk2ns2HGmkMC/xGBv0uRJnPGMGTPo559+dloIq3xOI4fRQCvtI4xC45Fqt27dmurVr0fRokUz0l+zZo3RnxuB3hfSpm1AuE09Da8EEoTMoYOHfPzOnzvLuWltuP+A/hQtenS7d6KfacGGh4uXLGYhfevWLZo+fTotWbqUBXL58uWpX7++dmlCK6xSpYpdmvrGq1o1o6PW+YQPbxOg+l7z6jPKYX5mpSyIW6FCBerXvx8lSJCA/v3nHzXQWEAnT57kZBs1akQ//2zfyc6YOYOF9HklKOfNm8eCpGy5stTs++91UShhwkQ0cOBAihEjBu3cuZM2bdxIUaJEoW7dulLatGkNPgwQqlWvzoODxYsWcb4YLPz22zS7uowdN5ayZs1Cjx4/Ylzv3r3L6fw6daqRFi5CetnKlC1Dnbt0pnBqoLZ8+XIe1LxQA5FSX39NAwcNNOqK0T3o/PnzdPDAQbvf0SNHDb6guEAbHDHivzbj22DYKl9Q1CG45mm1fQTX8oe0cgHv5i2ac9+1a9cumqwUFCgG6M8hwB1J2vR/iLhNo0aS6PAhjD5GEKoTJ06kBvXr+8r66aefEsy8Dx4+oJIlShp848aMpe07tnNn269ffyMcF40aNaRly5bZheGmYcMGPsL8E+CfsvTq3YuTnvrrrzR69BgjmxQpU9KqVSupdJnS1LdfP3r29CmVLFmCzdMQ6FUqVWbelStW0sJFC7ku0OZAnTt3YuGLZz179uSwjh06UOOmTahr166GBaJFyxb8rF2btrRTfQigpcuWUrp06ahmzZo8EIgcJTIVLlyY3r57R6VLleYPZfSo0XTo8CHKli0rWwGghYeGsnlV9WIM2rZqbeAxceIvtGfvHipatAg/wyFJkiR83alTZ7py+bIRHhwu2ndoz4NaWIEwuPKNrPL5Fj8shlttH2ERG0/UuVOnTpxsW9U/bd++na8XLVpCm7dsohq1atD48ePtspU2/R8cbtOo/0vS7yuYWR89esTzseXKlfOVOUXKFCycblz/y47n3r171Lt3b5oxY6ZdOG4gDKFBmgkmZQh8V8hqWWDGhknn2rVrdkIaeUMAzJs7l96+fUuVlGkaVNzbrP6TyRx+6tQp5oX2rOeOIUCB25ChQzkeDmPHjeO00qVPZ4RBi4eQ1UIaD/qrQQGocJHCfM6VMxfjulWZf7WZ+50S2kuWLOHnRbz5QkPZoseIznX606QVP378mF6+eEmRI0fhZzgkTJSIr29cv26EBYeLWLFiUf0GDXhQN+mXX3wtklU+XxMIow+sto8wCo/bq51IfWd///WXIaSRwa1bN+mrkqWoRvWadvlJm7aDg4JEULdo3pxLMWjwIMLcrzM6e+Ysm4GzZMlM7dUcI7RaTSuWr6Bfp0zRt3yGSRjUuk0bPutDWzU/C9q9e7cO8vfZalmKFinKaa9ft85pHkOHDqMc2XPQ3Dlz+Lmee9/hPbrUkU6dPs2XcJ4DxYkTl548ecIdNgeoAwQ+LBjRlUAHwTwOc/3FCxf5Xh+giUHIJ/M272bOYtPKDhw4pFn4vHfPXj5nzJSRz6GhbDD/gzC/i6kWzM1juiBK1Ci0d+8+foZDQjXAwdx1NTVFsmHDetq2fRuNHDnCktOekYgHLkaNHs1+H12VPwbK5xtZ5fMtflgNt9o+wio+7qw3ppfQPx08dIhgDdy0eRPt2rOLJkycQLHjxKJ//v7bLjtp03ZwuFdQY8QEs6L5t3PXDvsc1R2Ex9Kly1hjdDR3mJmHKcGGl9v0u+/o8B+HacvWLdRPzW87as2Ic/bMGdbUy6p5EDOVKlWKzeeYf3SFrJQld57cnMWBgweNrKAVf5Y0qd1Pz88nTpyITdCvXr0y+HFx5cpVvs+WLRvPLcNcff/+fQ4zH27fvsMdOUafOXJm50c3bvjUCl+9fGVglj6dbU77wgV7PM6ogREoZcrUfA7pZUMl0MbgcJc9ezY6cGA/HT12lOrWq8ftr0f37lxPHOLGjcs49+zVk4AlHPa+Ll2aFi9e7LI1xsjEnxdY5ZBHtadjx47baSCOyVjlc4wn99bbh2DlOgJ6RUuJEiV4yi5WzFgU+ZPIagqqKPvxpDdZBqVN+8TbrRo1NDdoeubfmzdvfeaqQmCSvX//Hrvoo1N0RnCuqlixIm3evIXNtAkTJiSvqlVp67atyrO5oo8omJ+Gho7GAEK6EHLLliz1wevfACtlie7tIHfnzl0j+cqVq7CWBk1N/378cTg/jxgpIil11+DVF6+9BTc0P+3Q9u7tO/3YOMN5DwTHsqhRbJaJlw5CH8/fvX9HEcJHwCV9Gjkyn1++fMlnfXj1ynavLRchvWyoV86cOUnP26OtwSkRbRRWmpq1a+mqU0wlmBGO1Qj58uUnTA/8phzrMMgaOXKkwReYFz///CNr0W0dLESOZbDK5xhP7q23D8HKdQQSJUrMicSMGZNGjhqlBqF5+DdhwgS2dP08YoSRibRpAwrjwq2CGh0hzL/mn9kRzMhVXcCU16zZ99xBDh06hIWN+bm+vnTxErVv147y5c1H5cqWoz2797CWjeVVjjRp0mROD56FoGbNmvH95Mn2ZnJzvPDhrEPwsbJcvnKFk86QPr2RxcFDB9mJC4J+u7eJWw9ebt28zY0U65nNlDxFCr49rrQpDHqw9AzmIUdKmCA+1+/ff/+lY2p5HMjZfDwEOQQV6IK3ZSFN2jR8rw9plcMZ6PKlS3wO6WVDJWBWi6C8plu2aElFChdlp8Syqg1hjrpD+/asPYOvZo1aVKxoMbslg6OUgx0c/uCfENiEpX2Y7pijpkjgk+EbWeXzLX5YD7faPsI6Tu6o/6WL/03JTZv6m5HkL8q5Ez5LeuWFtGkDGrsL61LKLpp7bjD3O3/+fJ5/HuGguUDgwJ0/evQYRmbXlbPP92rZEgQTlqnAecxM6FhPnDhJGTJkYFNzunRp2XSonabMvFevXuPb3LlzmYP5GqZQzGfqTtJqWU4qkz4Iy6Q0wYlsyOAh/LusBh2gc97L1a56C/asWbNqdj6nSWMTokeP2YQv1nP/T5mKtHatmePFi09PVZ1BGERAK0yePDnf6wOc6RDvL+XEAQI+IEcPYmyQAjpz1mYCD+llQ7uBQ96NGzd4SRtXTh3+Uvebt2zmwZ62vGDKwtkmMnA8w9r7wKbK3s6GtWvX5vX8WNM/Xg06QHXq1qU/j/zJ11b5mFkOdgj4p33YRZSbACGg+x342jgS+m3051BYpE07omO7D1JBjSJAiMFT2VFwFC5ShNcc9+zVw0fJYc6GULquvKsdaZJa9oV57fnz5/J5/Phxjix8/7vaNAVURW16os29HKAO3b3nL/ftszkcWS0LTO8vnr+gPHnzUMEvC+rk+AzhX6NWTb7eokz5oB07dvC5Zy/bki7cYD4bplkMLtCAQfAER0Nu164t3+OADhs4XDSNVDGPDUGdMaPNIQx8g5XDHmj3Xpuz2OHDhxm7Smo5mHlXIL2EbY+3011IL9vTp094/h/TJY7vN7O3k55e3967Ty+aopbTmfkQD97gsBIFNu1VG/BgXT0sNFeuXuXfXfWNgNDRXb5kW0JmlS+wyx8S8vNP+wgJ9QnuZYR3N/q0KGpqEo6vmtDfJVLKBCx+WH0ibVojY39Wk6Tuozhx4tCYsWN9JIiF7ae9PZl9PFQB2B1sxYoVLFj18wVK08b64QpqA5EvvkhOu3btpMjK87u8usfWmHAOw4t1JCxNwq5d2lPa2a5jiAOt/Ny5c7zGGE5qm7dsofvKi7qIMt2nz5Ce4OA1d85cTt4/ZflJbWjSp09vmqzWQO/Zs4f+/PMIZVCOEoULF2HBCu907diG3dm++64pwZFi2rRpdERpSrWUFoWBRp8+fYyqde/eg+vfqHFjghb95p1a4qXm7rEWun279gYfdjNDOjNmzqAF8+ZTOmWCh2MGhI02Nz18+JCXiUHQr1U7xS1THvTfqA1WoH2u+30dXVWCARQaynZw/wEeMGHdPerzUg2iSpb6SrWnL7hj0O9hxbIV7OCCdjB9+gw13x+Znc5giVi0aDHjEZiHvqZ3r/MtogauE3+ZSKtWrqRhw2w+Dlb5dBpytkfAavuwjyV3AUVg1MhRBIfNVatX8soXaNC1a9dhi9+ihbbvTNq0c3TdKqihkWCjDEeCwIKghhbsjGC2xdaIts1SbDwQwhW/rai2upzF2rZZ44bXeEO1vhSkl62Y016zZjXVqFGTOzUjv/e2dDU/wqt5VaPpKt+cOXOwk5rmhcm7jtpOE8IcZLUs4MVWqfdV/GHDhvE+39gCD4TywQt5QP/+fK8P33/fnObMncNOddj7FsIXy8/Wr1uvWViz7tGjBzvgaSc6jE5//PEnwzwPZuyqhaVf1WvUYMGDMCzhaq58AcyEZWKZMmfhDU7atGnNZcOgpVu3bmY2Nc0QsssGHwXsBPfV16VUh1Cb64b3cPbsOWrg3X4QCOeWWHFiU+XKldXWoraBD9oJ2qTjMkA7gALzxvvbee/LN2QUxSqfESHsXlhtH2EXIffWHNOciRIlpMZqi2i98yK+s7lqfwm/Vv+oDooL8tG2797iBqvUwiVIlMyGgipWpqw51Drc88GqgCgM5pPy5ctDz5RwOnzoMDtYubuQ/CcWsWPzfuNwNvKN/FMWmHgwB465dZivzYMEx/Sx5Axz61jv7RcftP1IESOpuWbbfLhjOvr+yy+/pMtqflwPNnS4+YyBFXYp26vM4s7m8TVvaCgb/AyiKi96CGnfCFMB+ZQF4vXrV3RItTNXKXWatMHye3K1XsEpvrswttI+glO9g6os7sAb/U6+vHnppfrOoFwI+Y6AxjtECGrfqyFPBIHgi4D+yIJvCUN+yQTjwH2HgnfQ4B3kzmSBW23JTRAQBAQBQUAQCFkIiKAOWe9LSisICAKCgCAQxhAQQR3GXrhUVxAQBAQBQSBkISCCOmS9LymtICAICAKCQBhDQAR1GHvhUl1BQBAQBASBkIWACOqQ9b6ktIKAICAICAJhDAER1GHshUt1BQFBQBAQBEIWAiKoQ9b7ktIKAoKAICAIhDEERFCHsRcu1RUEBAFBQBAIWQiIoA5Z70tKKwgIAoKAIBDGEPCxhWgYq79UVxAQBAQBQUAQCNYI2P171vtXj4J1YaVwgoAgIAgIAoJAWEPATlA/fvw4rNVf6hvKEDD/3Wkoq5pURxAQBMIoAv8HaHyOcEXrHpUAAAAASUVORK5CYII=;" vertex="1" parent="WIyWlLk6GJQsqaUBKTNV-1">
          <mxGeometry x="160" y="40" width="120" height="47.02" as="geometry" />
        </mxCell>
      </root>
    </mxGraphModel>
  </diagram>
</mxfile>
